<?xml version="1.0" encoding="utf-8"?>
<!-- Generator: Adobe Illustrator 14.0.0, SVG Export Plug-In . SVG Version: 6.00 Build 43363)  -->
<!DOCTYPE svg PUBLIC "-//W3C//DTD SVG 1.1//EN" "http://www.w3.org/Graphics/SVG/1.1/DTD/svg11.dtd">
<svg version="1.1" id="Ebene_1" xmlns="http://www.w3.org/2000/svg" xmlns:xlink="http://www.w3.org/1999/xlink" x="0px" y="0px"
	 width="800px" height="285px" viewBox="0 167.5 800 285" enable-background="new 0 167.5 800 285" xml:space="preserve">
<g id="Keys_2" display="none">
	
		<image display="inline" overflow="visible" enable-background="new    " width="500" height="289" xlink:href="93DAA852.jpeg"  transform="matrix(1.586 0 0 1.586 13.0396 73.7678)">
	</image>
</g>
<g id="Gehäuse">
	
		<linearGradient id="SVGID_1_" gradientUnits="userSpaceOnUse" x1="422.2021" y1="215.4968" x2="422.2021" y2="169.3538" gradientTransform="matrix(1 0 0 -1 -20.8398 602.4009)">
		<stop  offset="0" style="stop-color:#1A1A1A"/>
		<stop  offset="0.2416" style="stop-color:#0D0D0D"/>
		<stop  offset="0.5714" style="stop-color:#030303"/>
		<stop  offset="1" style="stop-color:#000000"/>
	</linearGradient>
	<path fill="url(#SVGID_1_)" stroke="#1A1A1A" stroke-width="2" d="M768.742,420.354c-3.832,8.666-11.896,11.393-18.604,11.393
		l-702.166,1.301c-6.707,0-8.935-0.676-13.164-11.319L22.637,390.18c-1.07-2.967,0.243-3.357,3.496-3.264l749.465,1.623
		c6.707,0,5.418,0.841,2.375,8.507L768.742,420.354z"/>
	
		<linearGradient id="SVGID_2_" gradientUnits="userSpaceOnUse" x1="41.7017" y1="310.8616" x2="802.7021" y2="310.8616" gradientTransform="matrix(1 0 0 -1 -20.8398 602.4009)">
		<stop  offset="0" style="stop-color:#121212"/>
		<stop  offset="0.4788" style="stop-color:#2E2E2E"/>
		<stop  offset="1" style="stop-color:#121212"/>
	</linearGradient>
	<path fill="url(#SVGID_2_)" stroke="#1A1A1A" stroke-width="2" d="M781.862,384.288c0,5.861-5.57,10.615-12.441,10.615H33.303
		c-6.871,0-12.441-4.754-12.441-10.615l61.332-175.659c3.666-9.915,17.605-18.662,27.043-18.6l566.875-1.854
		c17.002,0,37.5,0.591,45.75,22.479L781.862,384.288z"/>
	<g id="Gehäuseecke">
		<g>
			
				<linearGradient id="SVGID_3_" gradientUnits="userSpaceOnUse" x1="422.3662" y1="206.1506" x2="422.3662" y2="226.1428" gradientTransform="matrix(1 0 0 -1 -20.8398 602.4009)">
				<stop  offset="0" style="stop-color:#0D0D0D"/>
				<stop  offset="0.5" style="stop-color:#262626"/>
				<stop  offset="1" style="stop-color:#121212"/>
			</linearGradient>
			<path fill="url(#SVGID_3_)" d="M28.5,396.25c0,0-7.355-2.801-8.229-9.347c-0.688-5.153,1.312-8.403,1.312-8.403l758.292-2.242
				c0,0,2.475,3.941,3.006,7.963c0.5,3.781-3.298,11.529-3.298,11.529L28.5,396.25z"/>
		</g>
	</g>
	<g id="Tastenschatten">
		<polygon stroke="#000000" points="167,409.976 163.625,393.625 732.5,391.666 729.333,407.832 		"/>
	</g>
	<g id="Nischen_für_Rollen">
		<path d="M135.125,302.5c0.25-1.625,1.125-2.625,2.75-2.625s15.25-0.125,16.75,0s3.375,1,2.625,2.625s-14.375,60.875-14.875,63.125
			s-0.375,3.375-2.25,3.5s-18.25-0.125-20,0s-2.25-0.5-1.625-3.5S135.125,302.5,135.125,302.5z"/>
		<path d="M79.573,300.254c0.285-1.62,3.136-2.585,4.761-2.549c1.625,0.034,13.295,0.191,14.792,0.35
			c1.497,0.157,3.353,1.074,2.567,2.682c-0.785,1.607-16.144,60.775-16.692,63.016c-0.549,2.237-1.207,3.149-3.084,3.234
			c-1.877,0.084-17.585-0.541-19.338-0.454c-1.752,0.086-2.851-0.63-2.161-3.614C61.107,359.931,79.573,300.254,79.573,300.254z"/>
	</g>
</g>
<g id="Ebene_6">
	<path fill="#FFFFFF" d="M198.167,235.5l486.583-0.833c0,0,49.923,144.12,52.25,149.999c1.326,3.351-0.167,6.375-5.167,6.25
		c-24.875-0.621-564.021,1.657-566.271,1.646c-1.688-0.009-5-1.375-4.464-4.78C161.834,383.108,198.167,235.5,198.167,235.5z"/>
</g>
<g id="Linien_für_Key">
	<line fill="none" stroke="#000000" stroke-width="2" x1="197.874" y1="392.437" x2="229.333" y2="235.447"/>
	<line fill="none" stroke="#000000" stroke-width="2" x1="236.625" y1="392.281" x2="263" y2="235.504"/>
	<line fill="none" stroke="#000000" stroke-width="2" x1="276" y1="392.126" x2="294" y2="234.667"/>
	<line fill="none" stroke="#000000" stroke-width="2" x1="316" y1="392.563" x2="325" y2="235.283"/>
	<line fill="none" stroke="#000000" stroke-width="2" x1="355" y1="391.823" x2="360.963" y2="235.221"/>
	<line fill="none" stroke="#000000" stroke-width="2" x1="394.5" y1="391.823" x2="394.5" y2="235.164"/>
	<line fill="none" stroke="#000000" stroke-width="2" x1="433.322" y1="393.045" x2="426" y2="234.667"/>
	<line fill="none" stroke="#000000" stroke-width="2" x1="471.5" y1="392.166" x2="460" y2="234.667"/>
	<line fill="none" stroke="#000000" stroke-width="2" x1="511" y1="391.666" x2="492" y2="234.667"/>
	<line fill="none" stroke="#000000" stroke-width="2" x1="549.915" y1="391.144" x2="522.5" y2="234.667"/>
	<line fill="none" stroke="#000000" stroke-width="2" x1="588.833" y1="391.144" x2="556" y2="235.504"/>
	<line fill="none" stroke="#000000" stroke-width="2" x1="630" y1="390.921" x2="588.5" y2="234.667"/>
	<line fill="none" stroke="#000000" stroke-width="2" x1="668.917" y1="390.842" x2="622.5" y2="234.667"/>
	<line fill="none" stroke="#000000" stroke-width="2" x1="707" y1="390.842" x2="653.5" y2="234.667"/>
	<g>
		<path fill="#FFFFFF" d="M211.478,209.245l1.25,0.002l-1.262,4.679l6.021-4.671l1.618,0.002l-4.979,3.779l2.606,5.604l-1.578-0.003
			l-2.113-4.75l-1.958,1.457l-0.885,3.286l-1.25-0.002L211.478,209.245z"/>
		<path fill="#FFFFFF" d="M223.916,216.496c-0.706,1.498-2.004,2.311-3.529,2.309c-2.17-0.003-2.792-1.503-2.298-3.58
			c0.549-2.037,2.295-3.534,4.149-3.531c2.406,0.004,2.536,2.252,2.027,3.896l-5.088-0.008c-0.358,1.183,0.029,2.234,1.515,2.237
			c0.92,0.001,1.685-0.443,2.12-1.324L223.916,216.496z M223.349,214.602c0.234-1.063-0.338-1.92-1.442-1.922
			c-1.171-0.001-2.105,0.878-2.464,1.916L223.349,214.602z"/>
		<path fill="#FFFFFF" d="M227.023,219.564c-0.871,1.327-1.462,1.813-2.461,1.811c-0.263,0-0.52-0.027-0.745-0.119l0.277-1.025
			c0.192,0.066,0.391,0.158,0.615,0.159c0.46,0.001,0.77-0.222,1.087-0.616l0.771-1.155l-0.874-6.761l1.262,0.002l0.487,5.563h0.026
			l3.406-5.556l1.183,0.001L227.023,219.564z"/>
		<path fill="#FFFFFF" d="M238.579,212.035c0.216-1.342-0.521-1.922-1.81-1.924c-1.052-0.001-2.207,0.378-2.537,1.602
			c-0.312,1.157,1.141,1.33,2.561,1.673c1.407,0.345,2.765,0.873,2.268,2.713c-0.539,1.998-2.714,2.796-4.423,2.793
			c-2.104-0.003-3.603-1.031-2.986-3.317l1.183,0.002c-0.425,1.576,0.706,2.263,2.125,2.265c1.13,0.001,2.475-0.352,2.841-1.705
			c0.347-1.289-1.091-1.514-2.502-1.845c-1.411-0.331-2.805-0.768-2.341-2.489c0.514-1.906,2.437-2.745,4.146-2.742
			c1.92,0.002,3.135,0.912,2.657,2.977L238.579,212.035z"/>
		<path fill="#FFFFFF" d="M243.08,211.884l1.354,0.002l-0.266,0.986l-1.354-0.002l-1.138,4.219
			c-0.138,0.512-0.019,0.604,0.678,0.604h0.513l-0.265,0.986l-0.854-0.001c-1.158-0.001-1.554-0.239-1.218-1.488l1.166-4.324
			l-1.157-0.001l0.267-0.985l1.156,0.002l0.549-2.037l1.117,0.001L243.08,211.884z"/>
		<path fill="#FFFFFF" d="M249.869,218.666c-0.229,0.118-0.497,0.183-0.853,0.183c-0.578-0.001-0.861-0.317-0.663-1.053
			c-0.813,0.722-1.73,1.049-2.676,1.047c-1.236-0.002-2.1-0.556-1.734-1.909c0.414-1.538,1.647-1.864,2.864-2.086
			c1.3-0.235,2.332-0.154,2.558-0.996c0.262-0.972-0.497-1.132-1.208-1.132c-0.947-0.002-1.722,0.286-2.043,1.286l-1.118-0.002
			c0.519-1.683,1.98-2.272,3.493-2.271c1.223,0.002,2.477,0.28,2.047,1.871l-0.943,3.497c-0.141,0.524-0.205,0.761,0.15,0.762
			c0.092,0,0.201-0.012,0.359-0.064L249.869,218.666z M248.993,215.18c-0.519,0.315-1.364,0.327-2.149,0.457
			c-0.772,0.13-1.474,0.393-1.697,1.22c-0.199,0.736,0.361,1,1.045,1.001c1.473,0.002,2.326-0.917,2.492-1.533L248.993,215.18z"/>
		<path fill="#FFFFFF" d="M254.285,211.901l1.354,0.002l-0.266,0.985l-1.354-0.002l-1.138,4.219
			c-0.138,0.513-0.018,0.604,0.679,0.606l0.513,0.001l-0.266,0.984l-0.854-0.001c-1.157-0.001-1.554-0.238-1.217-1.486l1.166-4.325
			l-1.157-0.001l0.266-0.986l1.157,0.001l0.549-2.037l1.118,0.001L254.285,211.901z"/>
		<path fill="#FFFFFF" d="M258.389,210.685l-1.118-0.002l0.369-1.367l1.117,0.001L258.389,210.685z M256.941,211.906l1.118,0.002
			l-1.832,6.794l-1.118-0.001L256.941,211.906z"/>
		<path fill="#FFFFFF" d="M262.77,211.756c2.157,0.003,2.879,1.569,2.341,3.566c-0.536,1.984-2.101,3.547-4.258,3.544
			c-2.156-0.004-2.878-1.569-2.344-3.554C259.048,213.315,260.614,211.753,262.77,211.756z M261.119,217.881
			c1.17,0.001,2.364-0.917,2.808-2.561c0.447-1.655-0.252-2.577-1.422-2.579c-1.17-0.003-2.365,0.917-2.812,2.572
			C259.25,216.958,259.949,217.879,261.119,217.881z"/>
		<path fill="#FFFFFF" d="M267.344,211.921l1.052,0.002l-0.29,1.078h0.026c0.7-0.841,1.569-1.234,2.542-1.232
			c1.789,0.002,2.064,1.029,1.671,2.487l-1.204,4.469l-1.118-0.002l1.24-4.6c0.223-0.828-0.157-1.367-1.012-1.369
			c-1.354-0.001-2.257,0.904-2.586,2.126l-1.034,3.838l-1.118-0.002L267.344,211.921z"/>
	</g>
</g>
<g id="Knöbe">
	<g>
		<polygon fill="#999999" stroke="#4D4D4D" stroke-width="0.5" points="77.5,272.391 82.125,261.297 103.125,261.297 
			103.125,266.141 99.875,276.016 77.5,276.016 		"/>
		<g>
			<polyline points="83.063,262.391 101.375,262.359 98.646,271.263 79.375,271.287 			"/>
			<line fill="none" stroke="#4D4D4D" stroke-width="0.5" x1="77.5" y1="272.391" x2="99.625" y2="272.453"/>
			<line fill="none" stroke="#4D4D4D" stroke-width="0.5" x1="99.625" y1="272.453" x2="103.125" y2="261.297"/>
			<line fill="none" stroke="#4D4D4D" stroke-width="0.5" x1="99.625" y1="272.453" x2="99.625" y2="276.016"/>
		</g>
	</g>
	<g>
		<polygon fill="#999999" stroke="#4D4D4D" stroke-width="0.5" points="112.941,272.391 117.566,261.297 138.566,261.297 
			138.566,266.141 135.316,276.016 112.941,276.016 		"/>
		<g>
			<polyline points="118.504,262.391 136.816,262.359 134.088,271.263 114.816,271.287 			"/>
			<line fill="none" stroke="#4D4D4D" stroke-width="0.5" x1="112.941" y1="272.391" x2="135.066" y2="272.453"/>
			<line fill="none" stroke="#4D4D4D" stroke-width="0.5" x1="135.066" y1="272.453" x2="138.566" y2="261.297"/>
			<line fill="none" stroke="#4D4D4D" stroke-width="0.5" x1="135.066" y1="272.453" x2="135.066" y2="276.016"/>
		</g>
	</g>
	<g>
		<polygon fill="#999999" stroke="#4D4D4D" stroke-width="0.5" points="148.228,272.391 152.853,261.297 173.853,261.297 
			173.853,266.141 170.603,276.016 148.228,276.016 		"/>
		<g>
			<polyline points="153.791,262.391 172.103,262.359 169.375,271.263 150.103,271.287 			"/>
			<line fill="none" stroke="#4D4D4D" stroke-width="0.5" x1="148.228" y1="272.391" x2="170.353" y2="272.453"/>
			<line fill="none" stroke="#4D4D4D" stroke-width="0.5" x1="170.353" y1="272.453" x2="173.853" y2="261.297"/>
			<line fill="none" stroke="#4D4D4D" stroke-width="0.5" x1="170.353" y1="272.453" x2="170.353" y2="276.016"/>
		</g>
	</g>
</g>
<g id="Plastik_weiße_Tasten">
	<path fill="#E6E6E6" d="M195.749,393.044c0,0.561-0.18,1.012-0.401,1.012h-31.612c-0.222,0-0.402-0.451-0.402-1.012l0,0
		c0-0.56,0.18-1.011,0.402-1.011h31.612C195.569,392.033,195.749,392.485,195.749,393.044L195.749,393.044z"/>
	<path fill="#E6E6E6" d="M233.124,393.044c0,0.561-0.184,1.012-0.41,1.012h-32.303c-0.227,0-0.411-0.451-0.411-1.012l0,0
		c0-0.56,0.184-1.011,0.411-1.011h32.303C232.94,392.033,233.124,392.485,233.124,393.044L233.124,393.044z"/>
	<path fill="#E6E6E6" d="M272.624,393.044c0,0.561-0.184,1.012-0.41,1.012h-32.303c-0.227,0-0.411-0.451-0.411-1.012l0,0
		c0-0.56,0.184-1.011,0.411-1.011h32.303C272.44,392.033,272.624,392.485,272.624,393.044L272.624,393.044z"/>
	<path fill="#E6E6E6" d="M312.624,392.856c0,0.561-0.184,1.012-0.41,1.012h-32.303c-0.227,0-0.411-0.451-0.411-1.012l0,0
		c0-0.559,0.184-1.01,0.411-1.01h32.303C312.44,391.847,312.624,392.298,312.624,392.856L312.624,392.856z"/>
	<path fill="#E6E6E6" d="M352.124,392.562c0,0.561-0.184,1.012-0.41,1.012h-32.303c-0.227,0-0.411-0.451-0.411-1.012l0,0
		c0-0.559,0.184-1.01,0.411-1.01h32.303C351.94,391.552,352.124,392.003,352.124,392.562L352.124,392.562z"/>
	<path fill="#E6E6E6" d="M391.105,392.562c0,0.561-0.184,1.012-0.41,1.012h-32.303c-0.227,0-0.411-0.451-0.411-1.012l0,0
		c0-0.559,0.184-1.01,0.411-1.01h32.303C390.922,391.552,391.105,392.003,391.105,392.562L391.105,392.562z"/>
	<path fill="#E6E6E6" d="M429.662,392.562c0,0.561-0.185,1.012-0.41,1.012h-32.303c-0.227,0-0.411-0.451-0.411-1.012l0,0
		c0-0.559,0.184-1.01,0.411-1.01h32.303C429.479,391.552,429.662,392.003,429.662,392.562L429.662,392.562z"/>
	<path fill="#E6E6E6" d="M469.121,392.248c0,0.562-0.184,1.013-0.41,1.013h-32.303c-0.229,0-0.411-0.451-0.411-1.013l0,0
		c0-0.559,0.184-1.01,0.411-1.01h32.303C468.938,391.239,469.121,391.69,469.121,392.248L469.121,392.248z"/>
	<path fill="#E6E6E6" d="M508.048,392.248c0,0.562-0.184,1.013-0.41,1.013h-32.303c-0.228,0-0.411-0.451-0.411-1.013l0,0
		c0-0.559,0.185-1.01,0.411-1.01h32.303C507.864,391.239,508.048,391.69,508.048,392.248L508.048,392.248z"/>
	<path fill="#E6E6E6" d="M547.955,392.165c0,0.562-0.184,1.013-0.41,1.013h-32.303c-0.229,0-0.411-0.451-0.411-1.013l0,0
		c0-0.559,0.184-1.01,0.411-1.01h32.303C547.771,391.156,547.955,391.607,547.955,392.165L547.955,392.165z"/>
	<path fill="#E6E6E6" d="M585.955,391.931c0,0.561-0.184,1.012-0.41,1.012h-32.303c-0.229,0-0.411-0.451-0.411-1.012l0,0
		c0-0.56,0.184-1.01,0.411-1.01h32.303C585.771,390.921,585.955,391.371,585.955,391.931L585.955,391.931z"/>
	<path fill="#E6E6E6" d="M625.813,391.852c0,0.561-0.185,1.012-0.41,1.012h-32.304c-0.228,0-0.41-0.451-0.41-1.012l0,0
		c0-0.559,0.184-1.01,0.41-1.01h32.304C625.628,390.842,625.813,391.293,625.813,391.852L625.813,391.852z"/>
	<path fill="#E6E6E6" d="M665.813,391.665c0,0.562-0.185,1.013-0.41,1.013h-32.304c-0.228,0-0.41-0.451-0.41-1.013l0,0
		c0-0.559,0.184-1.01,0.41-1.01h32.304C665.628,390.656,665.813,391.107,665.813,391.665L665.813,391.665z"/>
	<path fill="#E6E6E6" d="M704.313,391.665c0,0.562-0.185,1.013-0.41,1.013h-32.304c-0.228,0-0.41-0.451-0.41-1.013l0,0
		c0-0.559,0.184-1.01,0.41-1.01h32.304C704.128,390.656,704.313,391.107,704.313,391.665L704.313,391.665z"/>
	<path fill="#E6E6E6" d="M735.596,391.155c0,0.562-0.147,1.012-0.331,1.012h-26.077c-0.186,0-0.332-0.45-0.332-1.012l0,0
		c0-0.559,0.146-1.01,0.332-1.01h26.077C735.447,390.146,735.596,390.597,735.596,391.155L735.596,391.155z"/>
</g>
<g id="Räder">
	<g>
		
			<linearGradient id="SVGID_4_" gradientUnits="userSpaceOnUse" x1="155.9053" y1="234.5823" x2="155.9053" y2="301.2429" gradientTransform="matrix(1 0 0 -1 -20.8398 602.4009)">
			<stop  offset="0" style="stop-color:#1A1A1A"/>
			<stop  offset="0.2788" style="stop-color:#222222"/>
			<stop  offset="0.5394" style="stop-color:#2A2A2A"/>
			<stop  offset="0.5461" style="stop-color:#242424"/>
			<stop  offset="0.5623" style="stop-color:#1C1C1C"/>
			<stop  offset="0.5939" style="stop-color:#1A1A1A"/>
			<stop  offset="0.7032" style="stop-color:#1C1C1C"/>
			<stop  offset="0.7425" style="stop-color:#232323"/>
			<stop  offset="0.7705" style="stop-color:#2E2E2E"/>
			<stop  offset="0.793" style="stop-color:#3F3F3F"/>
			<stop  offset="0.8061" style="stop-color:#4D4D4D"/>
			<stop  offset="1" style="stop-color:#000000"/>
		</linearGradient>
		<path fill="url(#SVGID_4_)" stroke="#000000" stroke-width="2" d="M128.241,309.402c3.642-5.5,8.157-8.143,8.157-8.143
			l12.125-0.06c0,0,2.209-0.405,1.938,1.329c-0.124,0.792-5.229,2.938-8.219,12.523c-1.042,3.341-1.079,7.392-1.344,11.414
			c-0.417,6.333-3.413,7.823-3.413,21.418c0,2.751,0.108,15.938-0.006,17.227c-0.117,1.314,0,2.71-1.936,2.708
			c-3.844-0.004-14.271-0.603-14.271-0.603s-1.623-7.619-1.625-13c-0.008-22.901,2.821-21.326,4-27.666
			C124.406,322.477,123.232,316.968,128.241,309.402z"/>
		<line fill="none" stroke="#1A1A1A" x1="120.852" y1="355.343" x2="136.148" y2="355.343"/>
		<line fill="none" stroke="#1A1A1A" x1="120.852" y1="358.718" x2="136.148" y2="358.718"/>
		<line fill="none" stroke="#1A1A1A" x1="121.29" y1="362.53" x2="136.586" y2="362.53"/>
		<line fill="none" stroke="#1A1A1A" x1="120.852" y1="351.343" x2="136.148" y2="351.343"/>
		<line fill="none" stroke="#1A1A1A" x1="120.852" y1="347.343" x2="136.148" y2="347.343"/>
		<line fill="none" stroke="#1A1A1A" x1="120.852" y1="344.01" x2="136.148" y2="344.01"/>
		<line fill="none" stroke="#1A1A1A" x1="121.29" y1="340.968" x2="136.586" y2="340.968"/>
		<line fill="none" stroke="#1A1A1A" x1="121.934" y1="337.155" x2="137.23" y2="337.155"/>
		<line fill="none" stroke="#1A1A1A" x1="122.852" y1="333.832" x2="138.148" y2="333.832"/>
		<line fill="none" stroke="#1A1A1A" x1="123.602" y1="331.093" x2="138.898" y2="331.093"/>
		<line fill="none" stroke="#1A1A1A" x1="124.165" y1="327.405" x2="139.461" y2="327.405"/>
		<line fill="none" stroke="#1A1A1A" x1="125.165" y1="323.718" x2="140.461" y2="323.718"/>
		<line fill="none" stroke="#1A1A1A" x1="125.165" y1="320.655" x2="140.461" y2="320.655"/>
		<line fill="none" stroke="#1A1A1A" x1="125.665" y1="317.78" x2="140.961" y2="317.78"/>
		<line fill="none" stroke="#1A1A1A" x1="126.665" y1="314.655" x2="141.961" y2="314.655"/>
		<line fill="none" stroke="#1A1A1A" x1="128.165" y1="310.78" x2="143.461" y2="310.78"/>
		<line fill="none" stroke="#1A1A1A" x1="129.832" y1="307.905" x2="145.128" y2="307.905"/>
		<path fill="none" stroke="#FFFFFF" stroke-width="0.5" d="M141.458,318.862c0,0-0.143,1.083-0.398,4.855"/>
		<line fill="none" stroke="#FFFFFF" stroke-width="0.5" x1="137.23" y1="340.968" x2="137.23" y2="349.843"/>
		<line fill="none" stroke="#FFFFFF" stroke-width="0.5" x1="120.271" y1="339.485" x2="119.648" y2="349.843"/>
	</g>
	<g>
		
			<linearGradient id="SVGID_5_" gradientUnits="userSpaceOnUse" x1="98.6294" y1="237.3225" x2="98.6294" y2="303.9822" gradientTransform="matrix(1 0 0 -1 -20.8398 602.4009)">
			<stop  offset="0" style="stop-color:#1A1A1A"/>
			<stop  offset="0.2788" style="stop-color:#222222"/>
			<stop  offset="0.5394" style="stop-color:#2A2A2A"/>
			<stop  offset="0.5461" style="stop-color:#242424"/>
			<stop  offset="0.5623" style="stop-color:#1C1C1C"/>
			<stop  offset="0.5939" style="stop-color:#1A1A1A"/>
			<stop  offset="0.7032" style="stop-color:#1C1C1C"/>
			<stop  offset="0.7425" style="stop-color:#232323"/>
			<stop  offset="0.7705" style="stop-color:#2E2E2E"/>
			<stop  offset="0.793" style="stop-color:#3F3F3F"/>
			<stop  offset="0.8061" style="stop-color:#4D4D4D"/>
			<stop  offset="1" style="stop-color:#000000"/>
		</linearGradient>
		<path fill="url(#SVGID_5_)" stroke="#000000" stroke-width="2" d="M70.965,306.661c3.642-5.5,8.157-8.143,8.157-8.143
			l12.125-0.059c0,0,2.209-0.406,1.938,1.328c-0.124,0.792-5.229,2.938-8.219,12.523c-1.042,3.341-1.079,7.392-1.344,11.414
			c-0.417,6.333-3.413,7.824-3.413,21.418c0,2.751,0.108,15.938-0.006,17.227c-0.117,1.314,0,2.71-1.936,2.708
			c-3.844-0.004-14.271-0.603-14.271-0.603s-1.623-7.619-1.625-13c-0.008-22.901,2.821-21.326,4-27.666
			C67.13,319.736,65.956,314.228,70.965,306.661z"/>
		<line fill="none" stroke="#1A1A1A" x1="63.576" y1="352.603" x2="78.873" y2="352.603"/>
		<line fill="none" stroke="#1A1A1A" x1="63.576" y1="355.978" x2="78.873" y2="355.978"/>
		<line fill="none" stroke="#1A1A1A" x1="64.014" y1="359.789" x2="79.31" y2="359.789"/>
		<line fill="none" stroke="#1A1A1A" x1="63.576" y1="348.603" x2="78.873" y2="348.603"/>
		<line fill="none" stroke="#1A1A1A" x1="63.576" y1="344.603" x2="78.873" y2="344.603"/>
		<line fill="none" stroke="#1A1A1A" x1="63.576" y1="341.27" x2="78.873" y2="341.27"/>
		<line fill="none" stroke="#1A1A1A" x1="64.014" y1="338.228" x2="79.31" y2="338.228"/>
		<line fill="none" stroke="#1A1A1A" x1="64.658" y1="334.414" x2="79.954" y2="334.414"/>
		<line fill="none" stroke="#1A1A1A" x1="65.576" y1="331.093" x2="80.873" y2="331.093"/>
		<line fill="none" stroke="#1A1A1A" x1="66.326" y1="328.353" x2="81.623" y2="328.353"/>
		<line fill="none" stroke="#1A1A1A" x1="66.889" y1="324.664" x2="82.185" y2="324.664"/>
		<line fill="none" stroke="#1A1A1A" x1="67.889" y1="320.978" x2="83.185" y2="320.978"/>
		<line fill="none" stroke="#1A1A1A" x1="67.889" y1="317.914" x2="83.185" y2="317.914"/>
		<line fill="none" stroke="#1A1A1A" x1="68.389" y1="315.039" x2="83.685" y2="315.039"/>
		<line fill="none" stroke="#1A1A1A" x1="69.389" y1="311.914" x2="84.685" y2="311.914"/>
		<line fill="none" stroke="#1A1A1A" x1="70.889" y1="308.039" x2="86.185" y2="308.039"/>
		<line fill="none" stroke="#1A1A1A" x1="72.556" y1="305.164" x2="87.852" y2="305.164"/>
		<path fill="none" stroke="#FFFFFF" stroke-width="0.5" d="M84.182,316.121c0,0-0.143,1.083-0.398,4.855"/>
		<line fill="none" stroke="#FFFFFF" stroke-width="0.5" x1="79.954" y1="338.228" x2="79.954" y2="347.103"/>
		<line fill="none" stroke="#FFFFFF" stroke-width="0.5" x1="62.996" y1="336.744" x2="62.373" y2="347.103"/>
	</g>
</g>
<g id="schwarze_Tasten">
	<polygon points="216.75,234.667 196.25,326.25 218.25,326.25 236.625,235.164 	"/>
	<polygon points="239.749,326.25 255.833,234.667 274.833,234.667 261.167,326.25 	"/>
	<polygon points="303,326.25 313.167,233.5 332.5,233.5 325,326.25 	"/>
	<polygon points="349.833,233.5 370.167,233.5 367.833,325.334 345.167,325.334 	"/>
	<polygon points="387.333,233.5 408,233.5 409.167,326.25 386.667,326.25 	"/>
	<polygon points="445,233.5 465.75,233.5 473.833,325.334 451.167,325.334 	"/>
	<polygon points="483.667,233.5 504,233.5 517.5,324.334 495,325.334 	"/>
	<polygon points="541.334,234.667 562.334,234.667 581.834,324.5 559.334,324.5 	"/>
	<polygon points="578.501,233.5 599.834,233.5 623.334,324.5 601.668,324.5 	"/>
	<polygon points="615.168,233.5 637.001,233.5 665.001,324.5 642.834,324.5 	"/>
</g>
<g id="Schatten_Tasten_Seitlich">
	
		<linearGradient id="SVGID_6_" gradientUnits="userSpaceOnUse" x1="239.3853" y1="323.0051" x2="247.2345" y2="321.193" gradientTransform="matrix(1 0 0 -1 -20.8398 602.4009)">
		<stop  offset="0" style="stop-color:#999999"/>
		<stop  offset="1" style="stop-color:#4D4D4D"/>
	</linearGradient>
	<polygon fill="url(#SVGID_6_)" points="214.798,306.377 216.438,324.334 231.667,237 228.333,237 	"/>
	
		<linearGradient id="SVGID_7_" gradientUnits="userSpaceOnUse" x1="279.5215" y1="323.7874" x2="288.6229" y2="321.6862" gradientTransform="matrix(1 0 0 -1 -20.8398 602.4009)">
		<stop  offset="0" style="stop-color:#999999"/>
		<stop  offset="1" style="stop-color:#4D4D4D"/>
	</linearGradient>
	<polygon fill="url(#SVGID_7_)" points="258.098,322.666 256.948,306.377 268,238.25 269.835,237 	"/>
	
		<linearGradient id="SVGID_8_" gradientUnits="userSpaceOnUse" x1="340.1943" y1="328.9534" x2="352.2617" y2="326.1674" gradientTransform="matrix(1 0 0 -1 -20.8398 602.4009)">
		<stop  offset="0" style="stop-color:#808080"/>
		<stop  offset="1" style="stop-color:#999999"/>
	</linearGradient>
	<polygon fill="url(#SVGID_8_)" points="322.496,314.896 321.557,306.355 328,236 329.25,235.008 	"/>
	
		<linearGradient id="SVGID_9_" gradientUnits="userSpaceOnUse" x1="573.2148" y1="322.7981" x2="578.9963" y2="324.1329" gradientTransform="matrix(1 0 0 -1 -20.8398 602.4009)">
		<stop  offset="0" style="stop-color:#4D4D4D"/>
		<stop  offset="1" style="stop-color:#999999"/>
	</linearGradient>
	<polygon fill="url(#SVGID_9_)" points="546.375,237.5 548.25,235.504 564.375,305.202 562.25,322.375 	"/>
	
		<linearGradient id="SVGID_10_" gradientUnits="userSpaceOnUse" x1="614.1396" y1="323.3723" x2="620.8175" y2="324.914" gradientTransform="matrix(1 0 0 -1 -20.8398 602.4009)">
		<stop  offset="0" style="stop-color:#4D4D4D"/>
		<stop  offset="1" style="stop-color:#666666"/>
	</linearGradient>
	<polygon fill="url(#SVGID_10_)" points="583.25,235.504 586.75,236.875 606.375,305.202 604.125,322.375 	"/>
	
		<linearGradient id="SVGID_11_" gradientUnits="userSpaceOnUse" x1="651.4805" y1="322.9749" x2="661.719" y2="325.3385" gradientTransform="matrix(1 0 0 -1 -20.8398 602.4009)">
		<stop  offset="0" style="stop-color:#333333"/>
		<stop  offset="1" style="stop-color:#666666"/>
	</linearGradient>
	<polygon fill="url(#SVGID_11_)" points="620.5,235.504 624.375,236.375 647.375,305.202 645,322.375 	"/>
	
		<linearGradient id="SVGID_12_" gradientUnits="userSpaceOnUse" x1="802.7021" y1="302.4006" x2="802.7021" y2="302.4006" gradientTransform="matrix(1 0 0 -1 -20.8398 602.4009)">
		<stop  offset="0" style="stop-color:#999999"/>
		<stop  offset="1" style="stop-color:#4D4D4D"/>
	</linearGradient>
	<path fill="url(#SVGID_12_)" d="M781.862,300"/>
	<polygon fill="#AFAFAF" points="489.001,238.75 489.001,236 500.584,305.594 499.86,313.855 	"/>
	
		<linearGradient id="SVGID_13_" gradientUnits="userSpaceOnUse" x1="841.1738" y1="452.0676" x2="841.1738" y2="452.0676" gradientTransform="matrix(1 0 0 -1 -20.8398 602.4009)">
		<stop  offset="0" style="stop-color:#999999"/>
		<stop  offset="1" style="stop-color:#4D4D4D"/>
	</linearGradient>
	<path fill="url(#SVGID_13_)" d="M820.334,150.333"/>
	<line fill="none" stroke="#808080" x1="196.679" y1="324.334" x2="216.438" y2="324.334"/>
	<line fill="none" stroke="#808080" x1="240.209" y1="323.625" x2="258.167" y2="323.625"/>
	<line fill="none" stroke="#808080" x1="562.25" y1="322.375" x2="580" y2="322.375"/>
	<line fill="none" stroke="#808080" x1="604.125" y1="322.375" x2="622.5" y2="322.375"/>
	<line fill="none" stroke="#808080" x1="645" y1="322.375" x2="663.726" y2="322.375"/>
</g>
<g id="Tasten_Schatten">
	<g>
		<line fill="none" stroke="#EAEAEA" x1="243.239" y1="306.377" x2="256.948" y2="306.377"/>
	</g>
	<g>
		<line fill="none" stroke="#EAEAEA" x1="307.333" y1="306.377" x2="321.557" y2="306.377"/>
	</g>
	<g>
		<line fill="none" stroke="#EAEAEA" x1="350.5" y1="306.377" x2="363.75" y2="306.377"/>
	</g>
	<g>
		<line fill="none" stroke="#EAEAEA" x1="391.75" y1="306.377" x2="405" y2="306.377"/>
	</g>
	<g>
		<line fill="none" stroke="#EAEAEA" x1="456.25" y1="306.377" x2="470" y2="306.377"/>
	</g>
	<g>
		<line fill="none" stroke="#EAEAEA" x1="513.831" y1="306.377" x2="500.5" y2="306.377"/>
	</g>
	<g>
		<line fill="none" stroke="#EAEAEA" x1="564.375" y1="306.377" x2="577.396" y2="306.377"/>
	</g>
	<g>
		<line fill="none" stroke="#EAEAEA" x1="606.234" y1="305.202" x2="618.351" y2="305.202"/>
	</g>
	<g>
		<line fill="none" stroke="#EAEAEA" x1="647" y1="305.202" x2="659.063" y2="305.202"/>
	</g>
	<polygon points="168,358.718 193.75,233.5 687.75,231.75 707,293.75 684.75,234.667 198.167,235.5 	"/>
	<g>
		<polyline fill="none" stroke="#7F7E7E" points="314.375,235.301 306.625,306.377 306,324.334 322.667,324.334 322.125,306.377 
			328,235.301 		"/>
	</g>
	<g>
		<polyline fill="none" stroke="#919090" points="352,236 349.5,306.377 348.5,323.625 364.375,323.625 363.75,306.377 366.333,236 
					"/>
	</g>
	<g>
		<polyline fill="none" stroke="#C6C6C6" points="390.833,236 391.75,306.377 390.833,322.666 406.334,322.666 405.625,306.377 
			405,236 		"/>
	</g>
	<g>
		<polyline fill="none" stroke="#999999" points="450,236 456.25,306.377 455.167,323.666 471.5,323.666 470.75,306.377 
			464.334,236 		"/>
	</g>
	<g>
		<polyline fill="none" stroke="#7F7E7E" points="489.001,236 500.584,305.594 499.001,323.666 514.831,323.666 513.625,306 
			503.668,236 		"/>
	</g>
	<g>
		<line fill="none" stroke="#EAEAEA" x1="200.698" y1="306.377" x2="214.798" y2="306.377"/>
	</g>
	<g>
		<path fill="none" stroke="#FFFFFF" d="M216.438,323.625"/>
	</g>
	<path fill="none" stroke="#FFFFFF" d="M229.333,237"/>
</g>
<g id="Keys_1" display="none">
	
		<image display="inline" overflow="visible" enable-background="new    " width="1000" height="363" xlink:href="93DAA856.jpeg"  transform="matrix(0.761 0 0 0.761 19.5 169.4485)">
	</image>
</g>
</svg>
